<?xml version="1.0" standalone="no"?><!DOCTYPE svg PUBLIC "-//W3C//DTD SVG 1.1//EN" "http://www.w3.org/Graphics/SVG/1.1/DTD/svg11.dtd"><svg t="1600038680386" class="icon" viewBox="0 0 1024 1024" version="1.1" xmlns="http://www.w3.org/2000/svg" p-id="773" xmlns:xlink="http://www.w3.org/1999/xlink" width="200" height="200"><defs><style type="text/css"></style></defs><path d="M471.79469059 416.38571667h39.63573593c1.13709086 0 1.95752337 1.1041913 1.62852779 2.19193282a263645.29304444 263645.29304444 0 0 0-11.38941383 37.78102359c-0.66415979 2.19810143-0.8574446 1.9678045 1.44141176 1.96780432h59.63866364c5.76153416 0 9.87603433 5.66694784 8.08712129 11.14883598l-20.02760256 61.34532794c-0.69089054 2.11790862-1.17204648 2.13641466 1.12886579 2.13641466h20.87887853c7.43735502 0 7.08162868 3.41538473 2.92189154 7.34688142l-64.58593392 61.00605139c-7.73139478 7.30370071-7.76018198 5.85200795-12.10497905-4.05898239L474.71863842 541.77619227c-4.36330312-9.94800226-2.80879935-8.8191363 8.05833408-8.81913629h17.36890749a1.67582104 1.67582104 0 0 0 1.61824681-1.1782151l11.91580657-36.83104913c1.51954812-4.69846732 1.5216042-3.9314965-3.33519208-3.93149651H449.42299507a1.70666433 1.70666433 0 0 1-1.62235935-2.21249476L470.17027519 417.57626921a1.67993337 1.67993337 0 0 1 1.6244154-1.19055254z" fill="#fea701" p-id="774"></path></svg>